<svg width="40" height="40" class="styles_xStudentsConsideringThisTutorIcon__f_bHT" xmlns="http://www.w3.org/2000/svg" fill="none" viewBox="0 0 40 40"><path fill="#E4EAFB" d="M20 0a6.342 6.342 0 0 1 5.7 3.5 1.6 1.6 0 0 0 1.925.8 6.368 6.368 0 0 1 6.525 1.55 6.368 6.368 0 0 1 1.55 6.525 1.6 1.6 0 0 0 .8 1.925A6.342 6.342 0 0 1 40 20a6.342 6.342 0 0 1-3.5 5.7 1.6 1.6 0 0 0-.8 1.925 6.368 6.368 0 0 1-1.55 6.525 6.368 6.368 0 0 1-6.525 1.55 1.6 1.6 0 0 0-1.925.8A6.342 6.342 0 0 1 20 40a6.342 6.342 0 0 1-5.7-3.5 1.6 1.6 0 0 0-1.925-.8 6.368 6.368 0 0 1-6.525-1.55 6.368 6.368 0 0 1-1.55-6.525 1.6 1.6 0 0 0-.8-1.925A6.342 6.342 0 0 1 0 20a6.342 6.342 0 0 1 3.5-5.7 1.6 1.6 0 0 0 .8-1.925A6.368 6.368 0 0 1 5.85 5.85a6.368 6.368 0 0 1 6.525-1.55 1.6 1.6 0 0 0 1.925-.8A6.342 6.342 0 0 1 20 0Z"></path><path stroke="#6483DD" stroke-linejoin="round" stroke-width="2" d="m18 18.5 2-4.5 2 4.5 5 .5-3.706 3.235L24.5 27 20 24.706 15.5 27l1.206-4.765L13 19l5-.5Z"></path></svg>